<svg xmlns="http://www.w3.org/2000/svg" width="512" height="512" viewBox="0 0 60 60" role="img" aria-label="How You Remind Me">
  <rect width="60" height="60" rx="13.4" fill="#16141C"></rect>
  <g transform="rotate(-7 30 30)">
    <path d="M16 41c-1.1 0-1.7-1.3-1-2.1C17.7 35.7 19.4 33 19.4 26c0-6 4-10.4 10.6-10.4S40.6 20 40.6 26c0 7 1.7 9.7 4.4 12.9.7.8.1 2.1-1 2.1H16Z" fill="#FF8A4C"></path>
    <circle cx="25" cy="27" r="2.4" fill="#16141C"></circle>
    <circle cx="35" cy="27" r="2.4" fill="#16141C"></circle>
    <ellipse cx="30" cy="35" rx="4" ry="5" fill="#16141C"></ellipse>
  </g>
  <path d="M9 24c-2 2-2 5 0 7M51 24c2 2 2 5 0 7" stroke="#FF6B5E" stroke-width="2.6" fill="none" stroke-linecap="round"></path>
</svg>